<svg width="48" height="48" viewBox="0 0 48 48" fill="none" xmlns="http://www.w3.org/2000/svg">
<path d="M7.19271 8.3904C7.19271 8.07214 7.31914 7.76691 7.54418 7.54187C7.76922 7.31683 8.07445 7.1904 8.39271 7.1904H9.44391C11.1887 7.1904 12.1919 8.3256 12.7727 9.4584C13.1687 10.2336 13.4543 11.1792 13.6919 12H38.3999C38.7707 12.0001 39.1365 12.0862 39.4685 12.2514C39.8005 12.4166 40.0897 12.6565 40.3134 12.9523C40.5371 13.2481 40.6892 13.5917 40.7578 13.9561C40.8264 14.3206 40.8096 14.6959 40.7087 15.0528L37.1183 27.7128C36.8327 28.7172 36.2274 29.6011 35.394 30.2304C34.5607 30.8597 33.5449 31.2001 32.5007 31.2H20.3111C19.2582 31.2004 18.2343 30.8545 17.3973 30.2157C16.5603 29.5768 15.9566 28.6805 15.6791 27.6648L14.1383 22.0128C14.1295 21.9875 14.1215 21.9619 14.1143 21.936L11.6399 13.5432L11.3999 12.7344C11.1599 11.904 10.9487 11.1696 10.6319 10.5528C10.2503 9.8088 9.89991 9.5928 9.44151 9.5928H8.39031C8.07205 9.5928 7.76682 9.46637 7.54178 9.24133C7.31674 9.01628 7.19031 8.71106 7.19031 8.3928L7.19271 8.3904Z" fill="white"/>
<path d="M20.3999 40.8C21.3547 40.8 22.2704 40.4207 22.9455 39.7456C23.6206 39.0705 23.9999 38.1548 23.9999 37.2C23.9999 36.2452 23.6206 35.3296 22.9455 34.6544C22.2704 33.9793 21.3547 33.6 20.3999 33.6C19.4451 33.6 18.5295 33.9793 17.8543 34.6544C17.1792 35.3296 16.7999 36.2452 16.7999 37.2C16.7999 38.1548 17.1792 39.0705 17.8543 39.7456C18.5295 40.4207 19.4451 40.8 20.3999 40.8Z" fill="white"/>
<path d="M32.3999 40.8C33.3547 40.8 34.2704 40.4207 34.9455 39.7456C35.6206 39.0705 35.9999 38.1548 35.9999 37.2C35.9999 36.2452 35.6206 35.3296 34.9455 34.6544C34.2704 33.9793 33.3547 33.6 32.3999 33.6C31.4451 33.6 30.5295 33.9793 29.8543 34.6544C29.1792 35.3296 28.7999 36.2452 28.7999 37.2C28.7999 38.1548 29.1792 39.0705 29.8543 39.7456C30.5295 40.4207 31.4451 40.8 32.3999 40.8Z" fill="white"/>
</svg>
